# xmcd
# Track frame offsets:
# 150
# 13755
# 26482
# 43828
# 58275
# 74658
# 89791
# 106005
# 121310
# 134102
# 147372
# 163773
#
# Disc length: 2377 seconds
# Revision: 0
# Processed by: cddbd v1.4PL0 Copyright (c) Steve Scherf et al.
# Submitted via: VisiTrax 2.9.5.180 - For more info visit www.synapsa.com
#
DISCID=ba09470c
DTITLE=Tom Horner - Take it from me
DYEAR=2000
DGENRE=
TTITLE0=If you so much as touch me
TTITLE1=You're walking and talking in my sleep again
TTITLE2=Let yourself go
TTITLE3=The best thing next to you
TTITLE4=We don't know any better
TTITLE5=Take it from me
TTITLE6=You got away with me heart
TTITLE7=Something blue
TTITLE8=Ain't got nothing but the radio
TTITLE9=Sentimental block
TTITLE10=You sure do get around
TTITLE11=He picked up where i left off
EXTD=
EXTT0=
EXTT1=
EXTT2=
EXTT3=
EXTT4=
EXTT5=
EXTT6=
EXTT7=
EXTT8=
EXTT9=
EXTT10=
EXTT11=
PLAYORDER=
